<?xml version="1.0" encoding="UTF-8"?>
<!DOCTYPE svg PUBLIC "-//W3C//DTD SVG 1.1//EN" "http://www.w3.org/Graphics/SVG/1.1/DTD/svg11.dtd">
<!-- Creator: CorelDRAW X8 -->
<svg xmlns="http://www.w3.org/2000/svg" xml:space="preserve" width="42.3332mm" height="42.3332mm" version="1.1" style="shape-rendering:geometricPrecision; text-rendering:geometricPrecision; image-rendering:optimizeQuality; fill-rule:evenodd; clip-rule:evenodd"
viewBox="0 0 4233 4233"
 xmlns:xlink="http://www.w3.org/1999/xlink">
 <defs>
  <style type="text/css">
   <![CDATA[
    .fil0 {fill:white}
   ]]>
  </style>
 </defs>
 <g id="レイヤ_x0020_1">
  <metadata id="CorelCorpID_0Corel-Layer"/>
  <path class="fil0" d="M3006 438c-239,-235 -527,-352 -865,-352 -338,0 -626,117 -864,352 -238,235 -356,519 -356,852 0,201 101,536 305,1007 203,470 407,898 610,1283 203,386 305,574 305,563 32,-58 75,-137 131,-238 55,-100 153,-289 293,-566 140,-278 263,-533 368,-765 106,-233 205,-473 295,-721 90,-249 134,-436 134,-563 0,-333 -118,-617 -357,-852l1 0zm-642 2204c0,-137 -108,-244 -245,-244 -137,0 -245,107 -245,244 0,137 108,242 245,242 137,0 245,-105 245,-242zm-134 -443c-3,-40 -3,-96 -3,-131l0 -8c0,-187 201,-248 361,-356 214,-143 322,-318 322,-568 0,-347 -278,-618 -782,-618 -414,0 -682,230 -755,507l216 111c105,-201 294,-315 510,-315 215,0 373,128 373,332 0,152 -79,260 -216,356 -198,137 -277,265 -277,533 0,38 0,105 6,157l245 0 0 0z"/>
 </g>
</svg>
