<?xml version="1.0" encoding="UTF-8" standalone="no"?>
<!-- Created with Inkscape (http://www.inkscape.org/) -->

<svg
   xmlns:dc="http://purl.org/dc/elements/1.1/"
   xmlns:cc="http://creativecommons.org/ns#"
   xmlns:rdf="http://www.w3.org/1999/02/22-rdf-syntax-ns#"
   xmlns:svg="http://www.w3.org/2000/svg"
   xmlns="http://www.w3.org/2000/svg"
   xmlns:sodipodi="http://sodipodi.sourceforge.net/DTD/sodipodi-0.dtd"
   xmlns:inkscape="http://www.inkscape.org/namespaces/inkscape"
   width="535"
   height="512"
   viewBox="0 0 535.00001 512.00001"
   id="svg2"
   version="1.1"
   inkscape:version="0.91 r13725"
   sodipodi:docname="back.svg">
  <defs
     id="defs4" />
  <sodipodi:namedview
     id="base"
     pagecolor="#ffffff"
     bordercolor="#666666"
     borderopacity="1.0"
     inkscape:pageopacity="0.0"
     inkscape:pageshadow="2"
     inkscape:zoom="0.35"
     inkscape:cx="804.23634"
     inkscape:cy="436.4432"
     inkscape:document-units="px"
     inkscape:current-layer="layer4"
     showgrid="false"
     units="px"
     inkscape:window-width="1366"
     inkscape:window-height="705"
     inkscape:window-x="-8"
     inkscape:window-y="-8"
     inkscape:window-maximized="1" />
  <metadata
     id="metadata7">
    <rdf:RDF>
      <cc:Work
         rdf:about="">
        <dc:format>image/svg+xml</dc:format>
        <dc:type
           rdf:resource="http://purl.org/dc/dcmitype/StillImage" />
        <dc:title></dc:title>
      </cc:Work>
    </rdf:RDF>
  </metadata>
  <g
     inkscape:label="レイヤー 1"
     inkscape:groupmode="layer"
     id="layer1"
     style="display:inline"
     transform="translate(0,-540.36157)">
    <g
       transform="translate(86.777489,-230.08893)"
       id="g4226" />
    <g
       transform="translate(86.777489,-230.08893)"
       id="g4228" />
    <g
       transform="translate(86.777489,-230.08893)"
       id="g4230" />
    <g
       transform="translate(86.777489,-230.08893)"
       id="g4232" />
    <g
       transform="translate(86.777489,-230.08893)"
       id="g4234" />
    <g
       transform="translate(86.777489,-230.08893)"
       id="g4236" />
    <g
       transform="translate(86.777489,-230.08893)"
       id="g4238" />
    <g
       transform="translate(86.777489,-230.08893)"
       id="g4240" />
    <g
       transform="translate(86.777489,-230.08893)"
       id="g4242" />
    <g
       transform="translate(86.777489,-230.08893)"
       id="g4244" />
    <g
       transform="translate(86.777489,-230.08893)"
       id="g4246" />
    <g
       transform="translate(86.777489,-230.08893)"
       id="g4248" />
    <g
       transform="translate(86.777489,-230.08893)"
       id="g4250" />
    <g
       transform="translate(86.777489,-230.08893)"
       id="g4252" />
    <g
       transform="translate(86.777489,-230.08893)"
       id="g4254" />
    <g
       id="g4555"
       transform="matrix(0.88012963,0,0,0.88012963,51.499441,546.19788)"
       style="opacity:0.5;fill:#000000;stroke:none">
      <g
         id="g4479"
         style="fill:#000000;stroke:none">
        <g
           id="g4481"
           style="fill:#000000;stroke:none">
          <g
             id="g4483"
             style="fill:#000000;stroke:none">
            <path
               id="path4485"
               d="m 222.97,114.836 c 7.426,0 13.445,6.02 13.445,13.445 l 0,235.295 c 0,7.425 -6.019,13.445 -13.445,13.445 L 4.482,256.011 c 0,0 -10.084,-10.084 0,-20.166 C 14.565,225.76 222.97,114.836 222.97,114.836 Z"
               inkscape:connector-curvature="0"
               style="fill:#000000;stroke:none" />
            <path
               id="path4487"
               d="m 478.411,114.835 c 7.426,0 13.447,6.02 13.447,13.447 l 0,235.294 c 0,7.426 -6.02,13.447 -13.447,13.447 L 259.924,256.013 c 0,0 -10.084,-10.084 0,-20.167 10.084,-10.086 218.487,-121.011 218.487,-121.011 z"
               inkscape:connector-curvature="0"
               style="fill:#000000;stroke:none" />
          </g>
        </g>
        <g
           id="g4489"
           style="fill:#000000;stroke:none" />
        <g
           id="g4491"
           style="fill:#000000;stroke:none" />
        <g
           id="g4493"
           style="fill:#000000;stroke:none" />
        <g
           id="g4495"
           style="fill:#000000;stroke:none" />
        <g
           id="g4497"
           style="fill:#000000;stroke:none" />
        <g
           id="g4499"
           style="fill:#000000;stroke:none" />
        <g
           id="g4501"
           style="fill:#000000;stroke:none" />
        <g
           id="g4503"
           style="fill:#000000;stroke:none" />
        <g
           id="g4505"
           style="fill:#000000;stroke:none" />
        <g
           id="g4507"
           style="fill:#000000;stroke:none" />
        <g
           id="g4509"
           style="fill:#000000;stroke:none" />
        <g
           id="g4511"
           style="fill:#000000;stroke:none" />
        <g
           id="g4513"
           style="fill:#000000;stroke:none" />
        <g
           id="g4515"
           style="fill:#000000;stroke:none" />
        <g
           id="g4517"
           style="fill:#000000;stroke:none" />
      </g>
      <g
         id="g4519"
         style="fill:#000000;stroke:none" />
      <g
         id="g4521"
         style="fill:#000000;stroke:none" />
      <g
         id="g4523"
         style="fill:#000000;stroke:none" />
      <g
         id="g4525"
         style="fill:#000000;stroke:none" />
      <g
         id="g4527"
         style="fill:#000000;stroke:none" />
      <g
         id="g4529"
         style="fill:#000000;stroke:none" />
      <g
         id="g4531"
         style="fill:#000000;stroke:none" />
      <g
         id="g4533"
         style="fill:#000000;stroke:none" />
      <g
         id="g4535"
         style="fill:#000000;stroke:none" />
      <g
         id="g4537"
         style="fill:#000000;stroke:none" />
      <g
         id="g4539"
         style="fill:#000000;stroke:none" />
      <g
         id="g4541"
         style="fill:#000000;stroke:none" />
      <g
         id="g4543"
         style="fill:#000000;stroke:none" />
      <g
         id="g4545"
         style="fill:#000000;stroke:none" />
      <g
         id="g4547"
         style="fill:#000000;stroke:none" />
    </g>
  </g>
  <g
     inkscape:groupmode="layer"
     id="layer4"
     inkscape:label="レイヤー 2"
     style="display:inline"
     transform="translate(0,-540.36157)">
    <g
       id="layer2"
       inkscape:label="レイヤー 2"
       style="display:inline"
       transform="translate(15.966223,2.8054043)">
      <g
         id="g4444"
         transform="matrix(0.9718995,0,0,0.9623335,7.627976,550.31319)"
         style="fill:none;stroke:#000000;stroke-width:15.51021385;stroke-miterlimit:4;stroke-dasharray:none">
        <g
           id="g4403"
           style="fill:none;stroke:#000000;stroke-width:15.51021385;stroke-miterlimit:4;stroke-dasharray:none">
          <g
             id="messenger"
             style="fill:none;stroke:#000000;stroke-width:15.51021385;stroke-miterlimit:4;stroke-dasharray:none">
            <path
               id="path4406"
               d="M 459,0 51,0 C 22.95,0 0,22.95 0,51 l 0,459 102,-102 357,0 c 28.05,0 51,-22.95 51,-51 L 510,51 C 510,22.95 487.05,0 459,0 Z"
               inkscape:connector-curvature="0"
               style="fill:none;stroke:#000000;stroke-width:15.51021385;stroke-miterlimit:4;stroke-dasharray:none" />
          </g>
        </g>
        <g
           id="g4408"
           style="fill:none;stroke:#000000;stroke-width:15.51021385;stroke-miterlimit:4;stroke-dasharray:none" />
        <g
           id="g4410"
           style="fill:none;stroke:#000000;stroke-width:15.51021385;stroke-miterlimit:4;stroke-dasharray:none" />
        <g
           id="g4412"
           style="fill:none;stroke:#000000;stroke-width:15.51021385;stroke-miterlimit:4;stroke-dasharray:none" />
        <g
           id="g4414"
           style="fill:none;stroke:#000000;stroke-width:15.51021385;stroke-miterlimit:4;stroke-dasharray:none" />
        <g
           id="g4416"
           style="fill:none;stroke:#000000;stroke-width:15.51021385;stroke-miterlimit:4;stroke-dasharray:none" />
        <g
           id="g4418"
           style="fill:none;stroke:#000000;stroke-width:15.51021385;stroke-miterlimit:4;stroke-dasharray:none" />
        <g
           id="g4420"
           style="fill:none;stroke:#000000;stroke-width:15.51021385;stroke-miterlimit:4;stroke-dasharray:none" />
        <g
           id="g4422"
           style="fill:none;stroke:#000000;stroke-width:15.51021385;stroke-miterlimit:4;stroke-dasharray:none" />
        <g
           id="g4424"
           style="fill:none;stroke:#000000;stroke-width:15.51021385;stroke-miterlimit:4;stroke-dasharray:none" />
        <g
           id="g4426"
           style="fill:none;stroke:#000000;stroke-width:15.51021385;stroke-miterlimit:4;stroke-dasharray:none" />
        <g
           id="g4428"
           style="fill:none;stroke:#000000;stroke-width:15.51021385;stroke-miterlimit:4;stroke-dasharray:none" />
        <g
           id="g4430"
           style="fill:none;stroke:#000000;stroke-width:15.51021385;stroke-miterlimit:4;stroke-dasharray:none" />
        <g
           id="g4432"
           style="fill:none;stroke:#000000;stroke-width:15.51021385;stroke-miterlimit:4;stroke-dasharray:none" />
        <g
           id="g4434"
           style="fill:none;stroke:#000000;stroke-width:15.51021385;stroke-miterlimit:4;stroke-dasharray:none" />
        <g
           id="g4436"
           style="fill:none;stroke:#000000;stroke-width:15.51021385;stroke-miterlimit:4;stroke-dasharray:none" />
      </g>
    </g>
    <g
       style="font-style:normal;font-weight:normal;font-size:125px;line-height:125%;font-family:sans-serif;letter-spacing:0px;word-spacing:0px;fill:#000000;fill-opacity:1;stroke:none;stroke-width:1px;stroke-linecap:butt;stroke-linejoin:miter;stroke-opacity:1"
       id="text4417">
      <path
         d="m 178.75,789.05798 c -12.25,2.75 -27.5,4.625 -40,4.625 -8.75,0 -12.625,-3.875 -12.625,-13.75 0,-0.875 0.125,-1.625 0.125,-2.5 l 0.75,-14 52.75,0 0,-17.5 -51.875,2.625 1.125,-21 37.625,0 0,-17.375 -80,5.25 3.875,12.125 20.375,0 0,21.875 -33,1.625 3.875,12.375 29.125,0 0,18.75 c 0,20.25 9.875,26.25 28,26.25 12,0 26.75,-0.375 38.25,-1.375 l 1.625,-18 z"
         style="font-style:normal;font-variant:normal;font-weight:600;font-stretch:normal;font-size:125px;font-family:'FOT-HERocknRoll Std';-inkscape-font-specification:'FOT-HERocknRoll Std Semi-Bold'"
         id="path4593" />
      <path
         d="m 302.875,717.55798 c 0,-4.25 -3.5,-7.625 -7.75,-7.625 -4.25,0 -7.625,3.375 -7.625,7.625 0,4.25 3.375,7.625 7.625,7.625 4.25,0 7.75,-3.375 7.75,-7.625 z m -16.75,5.625 c 0,-4.625 -3.875,-8.375 -8.5,-8.375 -4.625,0 -8.375,3.75 -8.375,8.375 0,4.625 3.75,8.375 8.375,8.375 4.625,0 8.5,-3.75 8.5,-8.375 z m 15.625,33.5 c -21.375,-9.875 -35.125,-14.125 -51.75,-19.625 l -4.5,6.75 1.125,-37.75 -18.25,-2.625 0,109.125 15.25,-2.625 1.75,-62.625 c 15.5,7.5 28.5,14.75 47,29.25 l 9.375,-19.875 z"
         style="font-style:normal;font-variant:normal;font-weight:600;font-stretch:normal;font-size:125px;font-family:'FOT-HERocknRoll Std';-inkscape-font-specification:'FOT-HERocknRoll Std Semi-Bold'"
         id="path4595" />
      <path
         d="m 393.75,811.43298 c 18,-11.875 38.75,-30.25 49,-42.625 l -5.125,-8.25 c -12.75,11.375 -28,22 -41.375,28.5 l 2.5,-79.875 -18.25,-2.5 0,98.25 13.25,6.5 z m -67.5,0.375 c 22,-15.125 33.5,-30.5 37.25,-49.5 2.75,-13.75 2.875,-23.875 2.875,-41.375 l -19,-2.25 c 0.625,6.875 1,13.75 1,20.5 0,6.375 -0.375,12.625 -1.25,18.25 -2.75,18.375 -9.875,32.5 -27.375,47 l 6.5,7.375 z"
         style="font-style:normal;font-variant:normal;font-weight:600;font-stretch:normal;font-size:125px;font-family:'FOT-HERocknRoll Std';-inkscape-font-specification:'FOT-HERocknRoll Std Semi-Bold'"
         id="path4597" />
    </g>
  </g>
</svg>
