<?xml version="1.0" encoding="UTF-8" standalone="no"?>
<svg
   xmlns:dc="http://purl.org/dc/elements/1.1/"
   xmlns:cc="http://creativecommons.org/ns#"
   xmlns:rdf="http://www.w3.org/1999/02/22-rdf-syntax-ns#"
   xmlns:svg="http://www.w3.org/2000/svg"
   xmlns="http://www.w3.org/2000/svg"
   version="1.1"
   id="svg2"
   viewBox="0 0 535.00001 512.00001"
   height="512"
   width="535">
  <defs
     id="defs4" />
  <metadata
     id="metadata7">
    <rdf:RDF>
      <cc:Work
         rdf:about="">
        <dc:format>image/svg+xml</dc:format>
        <dc:type
           rdf:resource="http://purl.org/dc/dcmitype/StillImage" />
        <dc:title></dc:title>
      </cc:Work>
    </rdf:RDF>
  </metadata>
  <g
     transform="translate(0,-540.36157)"
     style="display:inline"
     id="layer1">
    <g
       id="g4226"
       transform="translate(86.777489,-230.08893)" />
    <g
       id="g4228"
       transform="translate(86.777489,-230.08893)" />
    <g
       id="g4230"
       transform="translate(86.777489,-230.08893)" />
    <g
       id="g4232"
       transform="translate(86.777489,-230.08893)" />
    <g
       id="g4234"
       transform="translate(86.777489,-230.08893)" />
    <g
       id="g4236"
       transform="translate(86.777489,-230.08893)" />
    <g
       id="g4238"
       transform="translate(86.777489,-230.08893)" />
    <g
       id="g4240"
       transform="translate(86.777489,-230.08893)" />
    <g
       id="g4242"
       transform="translate(86.777489,-230.08893)" />
    <g
       id="g4244"
       transform="translate(86.777489,-230.08893)" />
    <g
       id="g4246"
       transform="translate(86.777489,-230.08893)" />
    <g
       id="g4248"
       transform="translate(86.777489,-230.08893)" />
    <g
       id="g4250"
       transform="translate(86.777489,-230.08893)" />
    <g
       id="g4252"
       transform="translate(86.777489,-230.08893)" />
    <g
       id="g4254"
       transform="translate(86.777489,-230.08893)" />
  </g>
  <g
     transform="translate(0,-540.36157)"
     style="display:inline"
     id="layer4">
    <g
       transform="translate(13.109073,11.376827)"
       style="display:inline;fill:none;stroke:#ffffff"
       id="layer2">
      <g
         style="fill:none;stroke:#ffffff;stroke-width:15.51021385;stroke-miterlimit:4;stroke-dasharray:none"
         transform="matrix(0.9718995,0,0,0.9623335,7.627976,550.31319)"
         id="g4444">
        <g
           style="fill:none;stroke:#ffffff;stroke-width:15.51021385;stroke-miterlimit:4;stroke-dasharray:none"
           id="g4403">
          <g
             style="fill:none;stroke:#ffffff;stroke-width:15.51021385;stroke-miterlimit:4;stroke-dasharray:none"
             id="messenger">
            <path
               style="fill:none;stroke:#ffffff;stroke-width:15.51021385;stroke-miterlimit:4;stroke-dasharray:none"
               d="M 459,0 51,0 C 22.95,0 0,22.95 0,51 l 0,459 102,-102 357,0 c 28.05,0 51,-22.95 51,-51 L 510,51 C 510,22.95 487.05,0 459,0 Z"
               id="path4406" />
          </g>
        </g>
        <g
           style="fill:none;stroke:#ffffff;stroke-width:15.51021385;stroke-miterlimit:4;stroke-dasharray:none"
           id="g4408" />
        <g
           style="fill:none;stroke:#ffffff;stroke-width:15.51021385;stroke-miterlimit:4;stroke-dasharray:none"
           id="g4410" />
        <g
           style="fill:none;stroke:#ffffff;stroke-width:15.51021385;stroke-miterlimit:4;stroke-dasharray:none"
           id="g4412" />
        <g
           style="fill:none;stroke:#ffffff;stroke-width:15.51021385;stroke-miterlimit:4;stroke-dasharray:none"
           id="g4414" />
        <g
           style="fill:none;stroke:#ffffff;stroke-width:15.51021385;stroke-miterlimit:4;stroke-dasharray:none"
           id="g4416" />
        <g
           style="fill:none;stroke:#ffffff;stroke-width:15.51021385;stroke-miterlimit:4;stroke-dasharray:none"
           id="g4418" />
        <g
           style="fill:none;stroke:#ffffff;stroke-width:15.51021385;stroke-miterlimit:4;stroke-dasharray:none"
           id="g4420" />
        <g
           style="fill:none;stroke:#ffffff;stroke-width:15.51021385;stroke-miterlimit:4;stroke-dasharray:none"
           id="g4422" />
        <g
           style="fill:none;stroke:#ffffff;stroke-width:15.51021385;stroke-miterlimit:4;stroke-dasharray:none"
           id="g4424" />
        <g
           style="fill:none;stroke:#ffffff;stroke-width:15.51021385;stroke-miterlimit:4;stroke-dasharray:none"
           id="g4426" />
        <g
           style="fill:none;stroke:#ffffff;stroke-width:15.51021385;stroke-miterlimit:4;stroke-dasharray:none"
           id="g4428" />
        <g
           style="fill:none;stroke:#ffffff;stroke-width:15.51021385;stroke-miterlimit:4;stroke-dasharray:none"
           id="g4430" />
        <g
           style="fill:none;stroke:#ffffff;stroke-width:15.51021385;stroke-miterlimit:4;stroke-dasharray:none"
           id="g4432" />
        <g
           style="fill:none;stroke:#ffffff;stroke-width:15.51021385;stroke-miterlimit:4;stroke-dasharray:none"
           id="g4434" />
        <g
           style="fill:none;stroke:#ffffff;stroke-width:15.51021385;stroke-miterlimit:4;stroke-dasharray:none"
           id="g4436" />
      </g>
    </g>
    <g
       style="display:inline;opacity:0.5;fill:#ffffff;stroke:none"
       transform="matrix(0.88012963,0,0,0.88012963,45.78515,540.4836)"
       id="g4555">
      <g
         style="fill:#ffffff;stroke:none"
         id="g4479">
        <g
           style="fill:#ffffff;stroke:none"
           id="g4481">
          <g
             style="fill:#ffffff;stroke:none"
             id="g4483">
            <path
               style="fill:#ffffff;stroke:none"
               d="m 222.97,114.836 c 7.426,0 13.445,6.02 13.445,13.445 l 0,235.295 c 0,7.425 -6.019,13.445 -13.445,13.445 L 4.482,256.011 c 0,0 -10.084,-10.084 0,-20.166 C 14.565,225.76 222.97,114.836 222.97,114.836 Z"
               id="path4485" />
            <path
               style="fill:#ffffff;stroke:none"
               d="m 478.411,114.835 c 7.426,0 13.447,6.02 13.447,13.447 l 0,235.294 c 0,7.426 -6.02,13.447 -13.447,13.447 L 259.924,256.013 c 0,0 -10.084,-10.084 0,-20.167 10.084,-10.086 218.487,-121.011 218.487,-121.011 z"
               id="path4487" />
          </g>
        </g>
        <g
           style="fill:#ffffff;stroke:none"
           id="g4489" />
        <g
           style="fill:#ffffff;stroke:none"
           id="g4491" />
        <g
           style="fill:#ffffff;stroke:none"
           id="g4493" />
        <g
           style="fill:#ffffff;stroke:none"
           id="g4495" />
        <g
           style="fill:#ffffff;stroke:none"
           id="g4497" />
        <g
           style="fill:#ffffff;stroke:none"
           id="g4499" />
        <g
           style="fill:#ffffff;stroke:none"
           id="g4501" />
        <g
           style="fill:#ffffff;stroke:none"
           id="g4503" />
        <g
           style="fill:#ffffff;stroke:none"
           id="g4505" />
        <g
           style="fill:#ffffff;stroke:none"
           id="g4507" />
        <g
           style="fill:#ffffff;stroke:none"
           id="g4509" />
        <g
           style="fill:#ffffff;stroke:none"
           id="g4511" />
        <g
           style="fill:#ffffff;stroke:none"
           id="g4513" />
        <g
           style="fill:#ffffff;stroke:none"
           id="g4515" />
        <g
           style="fill:#ffffff;stroke:none"
           id="g4517" />
      </g>
      <g
         style="fill:#ffffff;stroke:none"
         id="g4519" />
      <g
         style="fill:#ffffff;stroke:none"
         id="g4521" />
      <g
         style="fill:#ffffff;stroke:none"
         id="g4523" />
      <g
         style="fill:#ffffff;stroke:none"
         id="g4525" />
      <g
         style="fill:#ffffff;stroke:none"
         id="g4527" />
      <g
         style="fill:#ffffff;stroke:none"
         id="g4529" />
      <g
         style="fill:#ffffff;stroke:none"
         id="g4531" />
      <g
         style="fill:#ffffff;stroke:none"
         id="g4533" />
      <g
         style="fill:#ffffff;stroke:none"
         id="g4535" />
      <g
         style="fill:#ffffff;stroke:none"
         id="g4537" />
      <g
         style="fill:#ffffff;stroke:none"
         id="g4539" />
      <g
         style="fill:#ffffff;stroke:none"
         id="g4541" />
      <g
         style="fill:#ffffff;stroke:none"
         id="g4543" />
      <g
         style="fill:#ffffff;stroke:none"
         id="g4545" />
      <g
         style="fill:#ffffff;stroke:none"
         id="g4547" />
    </g>
    <g
       transform="translate(25.714286,2.8571433)"
       id="text4417"
       style="font-style:normal;font-weight:normal;font-size:125px;line-height:125%;font-family:sans-serif;letter-spacing:0px;word-spacing:0px;fill:#ffffff;fill-opacity:1;stroke:none;stroke-width:1px;stroke-linecap:butt;stroke-linejoin:miter;stroke-opacity:1">
      <path
         id="path4593"
         style="font-style:normal;font-variant:normal;font-weight:600;font-stretch:normal;font-size:125px;font-family:'FOT-HERocknRoll Std';-inkscape-font-specification:'FOT-HERocknRoll Std Semi-Bold';fill:#ffffff"
         d="m 178.75,789.05798 c -12.25,2.75 -27.5,4.625 -40,4.625 -8.75,0 -12.625,-3.875 -12.625,-13.75 0,-0.875 0.125,-1.625 0.125,-2.5 l 0.75,-14 52.75,0 0,-17.5 -51.875,2.625 1.125,-21 37.625,0 0,-17.375 -80,5.25 3.875,12.125 20.375,0 0,21.875 -33,1.625 3.875,12.375 29.125,0 0,18.75 c 0,20.25 9.875,26.25 28,26.25 12,0 26.75,-0.375 38.25,-1.375 l 1.625,-18 z" />
      <path
         id="path4595"
         style="font-style:normal;font-variant:normal;font-weight:600;font-stretch:normal;font-size:125px;font-family:'FOT-HERocknRoll Std';-inkscape-font-specification:'FOT-HERocknRoll Std Semi-Bold';fill:#ffffff"
         d="m 302.875,717.55798 c 0,-4.25 -3.5,-7.625 -7.75,-7.625 -4.25,0 -7.625,3.375 -7.625,7.625 0,4.25 3.375,7.625 7.625,7.625 4.25,0 7.75,-3.375 7.75,-7.625 z m -16.75,5.625 c 0,-4.625 -3.875,-8.375 -8.5,-8.375 -4.625,0 -8.375,3.75 -8.375,8.375 0,4.625 3.75,8.375 8.375,8.375 4.625,0 8.5,-3.75 8.5,-8.375 z m 15.625,33.5 c -21.375,-9.875 -35.125,-14.125 -51.75,-19.625 l -4.5,6.75 1.125,-37.75 -18.25,-2.625 0,109.125 15.25,-2.625 1.75,-62.625 c 15.5,7.5 28.5,14.75 47,29.25 l 9.375,-19.875 z" />
      <path
         id="path4597"
         style="font-style:normal;font-variant:normal;font-weight:600;font-stretch:normal;font-size:125px;font-family:'FOT-HERocknRoll Std';-inkscape-font-specification:'FOT-HERocknRoll Std Semi-Bold';fill:#ffffff"
         d="m 393.75,811.43298 c 18,-11.875 38.75,-30.25 49,-42.625 l -5.125,-8.25 c -12.75,11.375 -28,22 -41.375,28.5 l 2.5,-79.875 -18.25,-2.5 0,98.25 13.25,6.5 z m -67.5,0.375 c 22,-15.125 33.5,-30.5 37.25,-49.5 2.75,-13.75 2.875,-23.875 2.875,-41.375 l -19,-2.25 c 0.625,6.875 1,13.75 1,20.5 0,6.375 -0.375,12.625 -1.25,18.25 -2.75,18.375 -9.875,32.5 -27.375,47 l 6.5,7.375 z" />
    </g>
  </g>
</svg>
