<?xml version="1.0" encoding="UTF-8" standalone="no"?>
<svg
   xmlns:dc="http://purl.org/dc/elements/1.1/"
   xmlns:cc="http://creativecommons.org/ns#"
   xmlns:rdf="http://www.w3.org/1999/02/22-rdf-syntax-ns#"
   xmlns:svg="http://www.w3.org/2000/svg"
   xmlns="http://www.w3.org/2000/svg"
   version="1.1"
   id="svg2"
   viewBox="0 0 512.00001 512.00001"
   height="512"
   width="512">
  <defs
     id="defs4" />
  <metadata
     id="metadata7">
    <rdf:RDF>
      <cc:Work
         rdf:about="">
        <dc:format>image/svg+xml</dc:format>
        <dc:type
           rdf:resource="http://purl.org/dc/dcmitype/StillImage" />
        <dc:title></dc:title>
      </cc:Work>
    </rdf:RDF>
  </metadata>
  <g
     transform="translate(0,-540.36216)"
     id="layer1">
    <g
       transform="translate(-29.188731,141.39138)"
       id="g4226" />
    <g
       transform="translate(-29.188731,141.39138)"
       id="g4228" />
    <g
       transform="translate(-29.188731,141.39138)"
       id="g4230" />
    <g
       transform="translate(-29.188731,141.39138)"
       id="g4232" />
    <g
       transform="translate(-29.188731,141.39138)"
       id="g4234" />
    <g
       transform="translate(-29.188731,141.39138)"
       id="g4236" />
    <g
       transform="translate(-29.188731,141.39138)"
       id="g4238" />
    <g
       transform="translate(-29.188731,141.39138)"
       id="g4240" />
    <g
       transform="translate(-29.188731,141.39138)"
       id="g4242" />
    <g
       transform="translate(-29.188731,141.39138)"
       id="g4244" />
    <g
       transform="translate(-29.188731,141.39138)"
       id="g4246" />
    <g
       transform="translate(-29.188731,141.39138)"
       id="g4248" />
    <g
       transform="translate(-29.188731,141.39138)"
       id="g4250" />
    <g
       transform="translate(-29.188731,141.39138)"
       id="g4252" />
    <g
       transform="translate(-29.188731,141.39138)"
       id="g4254" />
    <g
       style="fill:#ffffff;stroke:#000000"
       transform="matrix(8.2961386,0,0,8.2961386,4.3458185,545.21319)"
       id="g4535">
      <path
         style="fill:#ffffff;stroke:#000000"
         d="M 30,1.5 C 13.458,1.5 0,13.612 0,28.5 0,33.705 1.647,38.746 4.768,43.104 4.177,49.641 2.593,54.494 0.293,56.793 -0.011,57.097 -0.087,57.562 0.105,57.946 0.276,58.289 0.625,58.5 1,58.5 1.046,58.5 1.093,58.497 1.14,58.49 1.545,58.433 10.953,57.078 17.757,53.152 21.622,54.711 25.738,55.5 30,55.5 46.542,55.5 60,43.388 60,28.5 60,13.612 46.542,1.5 30,1.5 Z"
         id="path4497" />
      <g
         style="fill:#ffffff;stroke:#000000"
         id="g4499" />
      <g
         style="fill:#ffffff;stroke:#000000"
         id="g4501" />
      <g
         style="fill:#ffffff;stroke:#000000"
         id="g4503" />
      <g
         style="fill:#ffffff;stroke:#000000"
         id="g4505" />
      <g
         style="fill:#ffffff;stroke:#000000"
         id="g4507" />
      <g
         style="fill:#ffffff;stroke:#000000"
         id="g4509" />
      <g
         style="fill:#ffffff;stroke:#000000"
         id="g4511" />
      <g
         style="fill:#ffffff;stroke:#000000"
         id="g4513" />
      <g
         style="fill:#ffffff;stroke:#000000"
         id="g4515" />
      <g
         style="fill:#ffffff;stroke:#000000"
         id="g4517" />
      <g
         style="fill:#ffffff;stroke:#000000"
         id="g4519" />
      <g
         style="fill:#ffffff;stroke:#000000"
         id="g4521" />
      <g
         style="fill:#ffffff;stroke:#000000"
         id="g4523" />
      <g
         style="fill:#ffffff;stroke:#000000"
         id="g4525" />
      <g
         style="fill:#ffffff;stroke:#000000"
         id="g4527" />
    </g>
    <path
       id="path4224"
       d="m 205.64643,957.05119 c 1.38149,-93.24038 -0.13512,-218.5394 0.21315,-356.4565 m -0.34827,72.4413 c -8.38598,0 -16.83354,3.13448 -23.33445,9.40345 -6.50092,6.26896 -9.75172,13.93102 -9.75172,22.98618 0,9.05516 3.2508,16.83354 9.75172,23.33446 6.50091,6.50091 14.90439,9.75171 23.33445,9.75171 0,-65.4758 0.2468,-29.42979 0,-65.4758 l 0.34827,-72.4413 c -29.71974,0 -55.02752,10.33194 -75.92405,30.99652 -20.89653,20.66458 -31.344799,45.62409 -31.344799,74.87924 0,17.64572 8.938839,47.13351 26.817219,88.46198 17.87837,41.32916 52.59802,128.7023 72.83072,161.25031 1.13394,1.82415 7.23158,-0.20616 7.62091,-1.04986"
       style="fill:#000000;stroke:none;stroke-width:0.69655102" />
    <ellipse
       ry="32.36665"
       rx="34.477516"
       cy="693.55493"
       cx="206.17029"
       id="path4305"
       style="opacity:1;fill:#ffffff;fill-opacity:1;stroke:#ffffff;stroke-width:0.69655102;stroke-linecap:butt;stroke-linejoin:miter;stroke-miterlimit:0;stroke-dasharray:none;stroke-opacity:1" />
    <g
       transform="matrix(5.907125,0,0,5.9527324,447.79507,514.6212)"
       id="g4201"
       style="fill:#000000;stroke:none">
      <path
         d="m -19.690172,39.486958 10.6100009,-15.434 c 0.21,-0.306 0.233,-0.703 0.061,-1.032 -0.173,-0.328 -0.514,-0.534 -0.885,-0.534 l -16.5574509,0 0,-4 c 0,-0.553 -0.447,-1 -1,-1 l -12.509969,0 0,-2 c 0,-0.553 -0.465985,-0.61084 -1.018985,-0.61084 -0.553,0 -0.981015,0.05784 -0.981015,0.61084 l 0,3 0,29 0,26 c 0,0.553 0.447,1 1,1 0.553,0 1,-0.447 1,-1 l 0,-25 2.535969,0 c -0.635,0.838 -1.026,1.87 -1.026,3 0,2.757 2.243,5 5,5 l 23.5574509,0 c 0.371,0 0.712,-0.206 0.885,-0.534 0.173,-0.329 0.149,-0.727 -0.061,-1.032 z m -20.281419,-20 11.509969,0 0,4 0,23 -5,0 -6.509969,0 z m 6.509969,35 c -1.654,0 -3,-1.346 -3,-3 0,-1.654 1.346,-3 3,-3 l 6,0 c 0.553,0 0.99433,-0.447029 1,-1 l 0,-23 14.656451,0 -9.923001,14.434 c -0.234,0.341 -0.234,0.792 0,1.133 l 9.923001,14.433 z"
         id="path4163"
         style="fill:#000000;stroke:none" />
      <g
         id="g4165"
         style="fill:#000000;stroke:none" />
      <g
         id="g4167"
         style="fill:#000000;stroke:none" />
      <g
         id="g4169"
         style="fill:#000000;stroke:none" />
      <g
         id="g4171"
         style="fill:#000000;stroke:none" />
      <g
         id="g4173"
         style="fill:#000000;stroke:none" />
      <g
         id="g4175"
         style="fill:#000000;stroke:none" />
      <g
         id="g4177"
         style="fill:#000000;stroke:none" />
      <g
         id="g4179"
         style="fill:#000000;stroke:none" />
      <g
         id="g4181"
         style="fill:#000000;stroke:none" />
      <g
         id="g4183"
         style="fill:#000000;stroke:none" />
      <g
         id="g4185"
         style="fill:#000000;stroke:none" />
      <g
         id="g4187"
         style="fill:#000000;stroke:none" />
      <g
         id="g4189"
         style="fill:#000000;stroke:none" />
      <g
         id="g4191"
         style="fill:#000000;stroke:none" />
      <g
         id="g4193"
         style="fill:#000000;stroke:none" />
    </g>
  </g>
  <g
     transform="translate(0,-540.36216)"
     style="display:inline"
     id="layer2" />
  <g
     transform="translate(0,-540.36216)"
     id="layer3" />
</svg>
