<?xml version="1.0" encoding="UTF-8"?>
<!DOCTYPE svg PUBLIC "-//W3C//DTD SVG 1.1//EN" "http://www.w3.org/Graphics/SVG/1.1/DTD/svg11.dtd">
<!-- Creator: CorelDRAW X8 -->
<svg xmlns="http://www.w3.org/2000/svg" xml:space="preserve" width="42.3332mm" height="42.3332mm" version="1.1" style="shape-rendering:geometricPrecision; text-rendering:geometricPrecision; image-rendering:optimizeQuality; fill-rule:evenodd; clip-rule:evenodd"
viewBox="0 0 4233 4233"
 xmlns:xlink="http://www.w3.org/1999/xlink">
 <defs>
  <style type="text/css">
   <![CDATA[
    .fil0 {fill:white}
   ]]>
  </style>
 </defs>
 <g id="レイヤ_x0020_1">
  <metadata id="CorelCorpID_0Corel-Layer"/>
  <path class="fil0" d="M2997 425c-238,-235 -526,-353 -864,-353 -338,0 -626,118 -864,353 -237,235 -356,519 -356,852 0,201 101,536 305,1006 203,471 407,899 610,1284 203,386 305,573 305,563 32,-58 75,-138 131,-238 55,-100 153,-289 293,-567 140,-277 263,-532 369,-764 105,-233 203,-473 293,-721 90,-249 135,-436 135,-563 0,-333 -119,-617 -357,-852zm-59 1678l-429 -447c110,-131 171,-296 171,-468 0,-401 -327,-728 -729,-728 -401,0 -728,327 -728,728 0,402 327,729 728,729 151,0 295,-46 417,-132l433 450c18,18 42,29 68,29 25,0 49,-10 66,-27 38,-36 39,-96 3,-134zm-987 -1453c297,0 539,241 539,538 0,297 -242,539 -539,539 -297,0 -538,-242 -538,-539 0,-297 241,-538 538,-538z"/>
  <g id="_1081033440464">
  </g>
  <g id="_1081033450736">
  </g>
  <g id="_1081033452016">
  </g>
  <g id="_1081033451056">
  </g>
  <g id="_1081033448784">
  </g>
  <g id="_1081033449616">
  </g>
  <g id="_1081033448336">
  </g>
  <g id="_1081033449744">
  </g>
  <g id="_1081033449776">
  </g>
  <g id="_1081033449328">
  </g>
  <g id="_1081033449424">
  </g>
  <g id="_1081033446480">
  </g>
  <g id="_1081033446192">
  </g>
  <g id="_1081033447504">
  </g>
  <g id="_1081033447312">
  </g>
 </g>
</svg>
