<?xml version="1.0" encoding="UTF-8" standalone="no"?>
<svg
   xmlns:dc="http://purl.org/dc/elements/1.1/"
   xmlns:cc="http://creativecommons.org/ns#"
   xmlns:rdf="http://www.w3.org/1999/02/22-rdf-syntax-ns#"
   xmlns:svg="http://www.w3.org/2000/svg"
   xmlns="http://www.w3.org/2000/svg"
   version="1.1"
   id="svg2"
   viewBox="0 0 535.00001 512.00001"
   height="512"
   width="535">
  <defs
     id="defs4" />
  <metadata
     id="metadata7">
    <rdf:RDF>
      <cc:Work
         rdf:about="">
        <dc:format>image/svg+xml</dc:format>
        <dc:type
           rdf:resource="http://purl.org/dc/dcmitype/StillImage" />
        <dc:title></dc:title>
      </cc:Work>
    </rdf:RDF>
  </metadata>
  <g
     transform="translate(0,-540.36157)"
     style="display:inline"
     id="layer1">
    <g
       style="opacity:0.5;fill:#000000;stroke:none"
       id="g4381"
       transform="matrix(0.91997087,0,0,0.91997087,-2.958303,43.843334)">
      <path
         transform="matrix(1.0869909,0,0,1.0869909,-105.48345,359.18787)"
         id="path4224"
         d="m 317.78516,196.78906 c -0.0519,20.54171 -0.0542,40.68783 -0.0391,60.60547 a 34.477518,32.36665 0 0 1 0.004,0 l 0.0352,-60.60547 z m 0,0 c -29.71975,0 -55.0273,10.33152 -75.92383,30.9961 -20.89653,20.66458 -31.34571,45.62571 -31.34571,74.88086 0,17.64572 8.93999,47.13247 26.81836,88.46093 17.87838,41.32916 52.59737,128.70199 72.83008,161.25 1.04236,1.67683 6.2687,0.0993 7.41016,-0.82226 l -0.002,1.6914 c 0.008,-0.55718 0.0134,-1.14755 0.0215,-1.70703 0.0906,-0.0755 0.16187,-0.14692 0.19141,-0.21094 l -0.0176,-13.54296 c 0.68228,-60.96278 0.3249,-134.92274 0.10156,-215.67774 a 34.477518,32.36665 0 0 1 -0.1582,-0.008 l -0.0684,113.49805 -0.14063,-113.50782 A 34.477518,32.36665 0 0 1 283.61914,289.75 a 34.477518,32.36665 0 0 1 33.875,-32.34766 l 0.29102,-60.61328 z"
         style="fill:#000000;stroke:none;stroke-width:0.69655102" />
      <g
         transform="matrix(6.4209913,0,0,6.4705662,502.92786,479.64387)"
         id="g4201"
         style="fill:#000000;stroke:none">
        <path
           d="m -19.690172,39.486958 10.6100009,-15.434 c 0.21,-0.306 0.233,-0.703 0.061,-1.032 -0.173,-0.328 -0.514,-0.534 -0.885,-0.534 l -16.5574509,0 0,-4 c 0,-0.553 -0.447,-1 -1,-1 l -12.509969,0 0,-2 c 0,-0.553 -0.465985,-0.61084 -1.018985,-0.61084 -0.553,0 -0.981015,0.05784 -0.981015,0.61084 l 0,3 0,29 0,26 c 0,0.553 0.447,1 1,1 0.553,0 1,-0.447 1,-1 l 0,-25 2.535969,0 c -0.635,0.838 -1.026,1.87 -1.026,3 0,2.757 2.243,5 5,5 l 23.5574509,0 c 0.371,0 0.712,-0.206 0.885,-0.534 0.173,-0.329 0.149,-0.727 -0.061,-1.032 z m -20.281419,-20 11.509969,0 0,4 0,23 -5,0 -6.509969,0 z m 6.509969,35 c -1.654,0 -3,-1.346 -3,-3 0,-1.654 1.346,-3 3,-3 l 6,0 c 0.553,0 0.99433,-0.447029 1,-1 l 0,-23 14.656451,0 -9.923001,14.434 c -0.234,0.341 -0.234,0.792 0,1.133 l 9.923001,14.433 z"
           id="path4163"
           style="fill:#000000;stroke:none" />
        <g
           id="g4165"
           style="fill:#000000;stroke:none" />
        <g
           id="g4167"
           style="fill:#000000;stroke:none" />
        <g
           id="g4169"
           style="fill:#000000;stroke:none" />
        <g
           id="g4171"
           style="fill:#000000;stroke:none" />
        <g
           id="g4173"
           style="fill:#000000;stroke:none" />
        <g
           id="g4175"
           style="fill:#000000;stroke:none" />
        <g
           id="g4177"
           style="fill:#000000;stroke:none" />
        <g
           id="g4179"
           style="fill:#000000;stroke:none" />
        <g
           id="g4181"
           style="fill:#000000;stroke:none" />
        <g
           id="g4183"
           style="fill:#000000;stroke:none" />
        <g
           id="g4185"
           style="fill:#000000;stroke:none" />
        <g
           id="g4187"
           style="fill:#000000;stroke:none" />
        <g
           id="g4189"
           style="fill:#000000;stroke:none" />
        <g
           id="g4191"
           style="fill:#000000;stroke:none" />
        <g
           id="g4193"
           style="fill:#000000;stroke:none" />
      </g>
    </g>
    <g
       id="g4226"
       transform="translate(86.777489,-230.08893)" />
    <g
       id="g4228"
       transform="translate(86.777489,-230.08893)" />
    <g
       id="g4230"
       transform="translate(86.777489,-230.08893)" />
    <g
       id="g4232"
       transform="translate(86.777489,-230.08893)" />
    <g
       id="g4234"
       transform="translate(86.777489,-230.08893)" />
    <g
       id="g4236"
       transform="translate(86.777489,-230.08893)" />
    <g
       id="g4238"
       transform="translate(86.777489,-230.08893)" />
    <g
       id="g4240"
       transform="translate(86.777489,-230.08893)" />
    <g
       id="g4242"
       transform="translate(86.777489,-230.08893)" />
    <g
       id="g4244"
       transform="translate(86.777489,-230.08893)" />
    <g
       id="g4246"
       transform="translate(86.777489,-230.08893)" />
    <g
       id="g4248"
       transform="translate(86.777489,-230.08893)" />
    <g
       id="g4250"
       transform="translate(86.777489,-230.08893)" />
    <g
       id="g4252"
       transform="translate(86.777489,-230.08893)" />
    <g
       id="g4254"
       transform="translate(86.777489,-230.08893)" />
  </g>
  <g
     transform="translate(0,-540.36157)"
     style="display:inline"
     id="layer4">
    <g
       transform="translate(15.96622,2.8054043)"
       style="display:inline"
       id="layer2">
      <g
         style="fill:none;stroke:#000000;stroke-width:15.51021385;stroke-miterlimit:4;stroke-dasharray:none"
         transform="matrix(0.9718995,0,0,0.9623335,7.627976,550.31319)"
         id="g4444">
        <g
           style="fill:none;stroke:#000000;stroke-width:15.51021385;stroke-miterlimit:4;stroke-dasharray:none"
           id="g4403">
          <g
             style="fill:none;stroke:#000000;stroke-width:15.51021385;stroke-miterlimit:4;stroke-dasharray:none"
             id="messenger">
            <path
               style="fill:none;stroke:#000000;stroke-width:15.51021385;stroke-miterlimit:4;stroke-dasharray:none"
               d="M 459,0 51,0 C 22.95,0 0,22.95 0,51 l 0,459 102,-102 357,0 c 28.05,0 51,-22.95 51,-51 L 510,51 C 510,22.95 487.05,0 459,0 Z"
               id="path4406" />
          </g>
        </g>
        <g
           style="fill:none;stroke:#000000;stroke-width:15.51021385;stroke-miterlimit:4;stroke-dasharray:none"
           id="g4408" />
        <g
           style="fill:none;stroke:#000000;stroke-width:15.51021385;stroke-miterlimit:4;stroke-dasharray:none"
           id="g4410" />
        <g
           style="fill:none;stroke:#000000;stroke-width:15.51021385;stroke-miterlimit:4;stroke-dasharray:none"
           id="g4412" />
        <g
           style="fill:none;stroke:#000000;stroke-width:15.51021385;stroke-miterlimit:4;stroke-dasharray:none"
           id="g4414" />
        <g
           style="fill:none;stroke:#000000;stroke-width:15.51021385;stroke-miterlimit:4;stroke-dasharray:none"
           id="g4416" />
        <g
           style="fill:none;stroke:#000000;stroke-width:15.51021385;stroke-miterlimit:4;stroke-dasharray:none"
           id="g4418" />
        <g
           style="fill:none;stroke:#000000;stroke-width:15.51021385;stroke-miterlimit:4;stroke-dasharray:none"
           id="g4420" />
        <g
           style="fill:none;stroke:#000000;stroke-width:15.51021385;stroke-miterlimit:4;stroke-dasharray:none"
           id="g4422" />
        <g
           style="fill:none;stroke:#000000;stroke-width:15.51021385;stroke-miterlimit:4;stroke-dasharray:none"
           id="g4424" />
        <g
           style="fill:none;stroke:#000000;stroke-width:15.51021385;stroke-miterlimit:4;stroke-dasharray:none"
           id="g4426" />
        <g
           style="fill:none;stroke:#000000;stroke-width:15.51021385;stroke-miterlimit:4;stroke-dasharray:none"
           id="g4428" />
        <g
           style="fill:none;stroke:#000000;stroke-width:15.51021385;stroke-miterlimit:4;stroke-dasharray:none"
           id="g4430" />
        <g
           style="fill:none;stroke:#000000;stroke-width:15.51021385;stroke-miterlimit:4;stroke-dasharray:none"
           id="g4432" />
        <g
           style="fill:none;stroke:#000000;stroke-width:15.51021385;stroke-miterlimit:4;stroke-dasharray:none"
           id="g4434" />
        <g
           style="fill:none;stroke:#000000;stroke-width:15.51021385;stroke-miterlimit:4;stroke-dasharray:none"
           id="g4436" />
      </g>
    </g>
    <g
       transform="translate(15.96622,2.8054043)"
       id="layer3">
      <g
         id="flowRoot4138"
         style="font-style:normal;font-variant:normal;font-weight:normal;font-stretch:normal;font-size:290.82427979px;line-height:125%;font-family:fontopoSUBWAY;-inkscape-font-specification:fontopoSUBWAY;letter-spacing:0px;word-spacing:0px;display:inline;fill:#000000;fill-opacity:1;stroke:none;stroke-width:1px;stroke-linecap:butt;stroke-linejoin:miter;stroke-opacity:1"
         transform="matrix(0.95776844,0,0,0.95776844,-7.6932311,63.952386)">
        <path
           id="path4494"
           d="m 230.00641,680.2526 c 0,-18.32193 -5.81649,-32.86315 -17.44946,-43.33282 -11.05132,-9.5972 -25.59254,-14.25039 -35.48056,-16.57699 0,0 -0.29083,0 -0.29083,0 l 0,-0.29082 c -0.29082,0 -39.84292,-9.01555 -68.92535,-15.41369 -12.505446,-2.61742 -20.648526,-6.39813 -24.720066,-10.7605 -2.617418,-3.19906 -2.617418,-5.81648 -2.617418,-8.14308 0,-22.39346 21.230174,-23.55676 25.592534,-23.55676 l 10.17885,0 98.58943,0 c 2.03577,0 4.07154,-2.03577 4.07154,-4.07154 l 0,-22.97512 c 0,-2.03577 -2.03577,-4.07154 -4.07154,-4.07154 l -98.58943,0 -10.46967,0 c -16.286161,0.29082 -30.245727,4.94401 -40.715401,13.95957 -11.632971,9.88802 -17.449457,23.84759 -17.449457,40.71539 0,13.37792 4.944013,24.72007 14.541214,33.73562 7.852256,6.97978 19.776051,12.21462 38.388804,16.57699 22.68429,5.23483 51.18507,11.63297 63.39969,14.25039 5.23484,1.16329 5.23484,1.16329 5.23484,1.16329 26.17419,5.81649 27.91913,15.99534 27.91913,28.79161 0,11.63297 -9.30637,20.06687 -22.39347,20.06687 -6.97978,0 -17.44945,-0.29082 -17.44945,-0.29082 l -0.29083,0 c 0,0 0,0 0,0 l -55.83826,0 c -10.17885,0 -20.648524,-11.63297 -24.138416,-19.48523 -0.290824,-1.1633 -1.163297,-2.03577 -2.035769,-2.32659 -0.872473,-0.29083 -2.03577,-0.29083 -3.199068,0 l -22.975118,9.5972 c -0.872473,0.29082 -1.744945,1.16329 -2.03577,2.03577 -0.290824,1.16329 -0.290824,2.32659 0,3.19906 4.07154,9.88803 11.342147,18.90358 20.648524,25.59254 10.469674,7.56143 22.102646,11.63297 33.735617,11.63297 55.25661,0 55.25661,0 55.25661,0 2.03577,0 11.34215,0.29083 18.32193,0.29083 12.50545,0 25.88336,-4.36237 36.06221,-12.21462 12.50545,-9.5972 19.19441,-23.26595 19.19441,-38.09798 z" />
      </g>
      <g
         id="flowRoot4146"
         style="font-style:normal;font-variant:normal;font-weight:normal;font-stretch:normal;font-size:40px;line-height:125%;font-family:fontopoSUBWAY;-inkscape-font-specification:fontopoSUBWAY;letter-spacing:0px;word-spacing:0px;display:inline;fill:#000000;fill-opacity:1;stroke:none;stroke-width:1px;stroke-linecap:butt;stroke-linejoin:miter;stroke-opacity:1"
         transform="matrix(3.2947197,0,0,3.2947197,-708.41501,-932.99366)">
        <path
           id="path4485"
           d="m 287.3618,485.18034 c 0,-0.32 -0.24,-0.56 -0.56,-0.56 l -3.4,0 c -0.32,0 -0.56,0.24 -0.56,0.56 l 0,26.32 c 0,0.32 0.24,0.56 0.56,0.56 l 3.4,0 c 0.32,0 0.56,-0.24 0.56,-0.56 l 0,-26.32 z m 14.4,14.8 c 0,-2.52 -0.6,-4.52 -1.88,-6 -1,-1.2 -2.4,-2.08 -4.08,-2.4 -0.08,0 -0.32,-0.04 -0.44,-0.04 l -1.2,0 -0.44,0 c -2.88,0 -4.92,1.88 -5.76,3.48 -0.08,0.12 -0.08,0.28 -0.04,0.4 0.04,0.16 0.12,0.28 0.28,0.36 l 3,1.6 c 0.12,0.08 0.28,0.08 0.44,0.04 0.12,-0.04 0.24,-0.16 0.32,-0.28 0.24,-0.48 1.16,-1.52 1.96,-1.52 0,0 0,0 0.16,0 0.92,0 1.64,0.32 2.36,1.28 0.52,0.64 0.8,1.68 0.8,3.08 l 0,11.56 c 0,0.32 0.28,0.56 0.56,0.56 l 3.44,0 c 0.28,0 0.52,-0.24 0.52,-0.56 l 0,-11.56 z" />
        <path
           id="path4487"
           d="m 323.76992,499.18034 c 0,-2.2 -0.76,-4.08 -2.28,-5.44 -1.4,-1.32 -3.36,-2.08 -5.68,-2.08 l -0.04,0 c 0,0 0,0 0,0 l -2.56,0 c -2.48,0 -4.8,1.08 -6.52,3.12 -1.64,1.92 -2.52,4.44 -2.52,7.12 0,2.64 0.88,5.16 2.52,7.08 1.72,2.04 4.04,3.16 6.52,3.16 l 3.44,0 c 0.28,0 0.52,-0.28 0.52,-0.56 l 0,-2.84 c 0,-0.32 -0.24,-0.56 -0.52,-0.56 l -3.4,-0.04 c -2.72,-0.04 -4.56,-3.24 -4.56,-6.24 0,-3.28 2.16,-6.28 4.52,-6.28 2.48,0 2.48,0 2.48,0 2.72,0 3.56,2.08 3.56,3.56 l 0,12.44 c 0,0.32 0.24,0.56 0.56,0.56 l 3.4,0 c 0.32,0 0.56,-0.24 0.56,-0.56 l 0,-12.44 z" />
        <path
           id="path4489"
           d="m 337.00117,492.06034 c 0,-0.28 -0.24,-0.56 -0.56,-0.56 l -3.84,0 c -1.8,0 -3.44,0.6 -4.6,1.68 -1.16,1.08 -1.8,2.6 -1.8,4.32 l 0,13.96 c 0,0.32 0.24,0.56 0.56,0.56 l 3.4,0 c 0.32,0 0.56,-0.24 0.56,-0.56 l 0,-13.96 c 0,-1.56 1.28,-2.04 1.88,-2.04 l 3.84,0 c 0.32,0 0.56,-0.24 0.56,-0.56 l 0,-2.84 z" />
        <path
           id="path4491"
           d="m 358.17367,499.74034 c -0.04,-0.12 -0.12,-0.28 -0.24,-0.36 l -2.88,-1.8 c -0.28,-0.16 -0.64,-0.08 -0.8,0.16 -0.88,1.4 -1.72,2.16 -3.88,2.12 l -3.68,-0.04 c -2,0 -2.88,0 -2.88,0 0.24,-1.12 0.72,-2.12 1.4,-2.92 0.8,-0.96 1.84,-1.48 2.84,-1.48 l 7,0 c 0.32,0 0.56,-0.24 0.56,-0.56 l 0,-2.84 c 0,-0.28 -0.24,-0.52 -0.56,-0.52 l -7,0 c -2.48,0 -4.8,1.08 -6.52,3.12 -1.64,1.92 -2.52,4.44 -2.52,7.12 0,2.64 0.88,5.16 2.52,7.08 1.72,2.04 4.04,3.16 6.52,3.16 l 7.72,0 c 0.32,0 0.56,-0.28 0.56,-0.56 l 0,-2.92 c 0,-0.28 -0.24,-0.56 -0.56,-0.56 l -7.72,0 c -2.24,0 -3.68,-1.96 -4.2,-4.12 0.88,0 2.72,0 2.8,0 0.2,0 2.64,0 3.72,0.04 0,0 0,0 0,0 3.88,0 6.04,-1.04 7.72,-3.68 0.08,-0.16 0.12,-0.28 0.08,-0.44 z" />
      </g>
      <g
         id="flowRoot4154"
         style="font-style:normal;font-variant:normal;font-weight:normal;font-stretch:normal;font-size:40px;line-height:125%;font-family:fontopoSUBWAY;-inkscape-font-specification:fontopoSUBWAY;letter-spacing:0px;word-spacing:0px;display:inline;fill:#000000;fill-opacity:1;stroke:none;stroke-width:1px;stroke-linecap:butt;stroke-linejoin:miter;stroke-opacity:1"
         transform="matrix(4.9697168,0,0,5.3650167,-1396.4325,-1705.785)">
        <path
           id="path4478"
           d="m 304.18099,471.60714 c -0.28,-2.56 -0.96,-4.6 -2.16,-6.12 l -0.04,-0.08 c -1.48,-1.88 -3.76,-3 -6.32,-3 -2.72,0 -4.88,1.08 -6.28,3.12 -1.2,1.72 -1.8,4.12 -1.8,7.16 l 0,16.68 c 0,0.32 0.24,0.56 0.56,0.56 l 3.4,0 c 0.32,0 0.56,-0.24 0.56,-0.56 l 0,-16.68 c 0,-2.56 0.48,-4.32 1.48,-5.28 0.52,-0.52 1.2,-0.76 2.08,-0.76 1.56,0 3.4,0.6 3.88,5.28 0,0 0,0.04 1.36,13.44 0,0.32 0.24,0.52 0.52,0.52 l 3.68,0 c 0.16,0 0.32,-0.08 0.44,-0.2 0.08,-0.12 0.16,-0.24 0.12,-0.4 l -1.48,-13.68 z m 14.64,1.08 c 0,-3.04 -0.6,-5.44 -1.8,-7.16 -1.44,-2.04 -3.6,-3.12 -6.28,-3.12 -2.72,0 -5.04,1.16 -6.6,3.2 -0.12,0.12 -0.16,0.28 -0.12,0.44 0,0.12 0.08,0.28 0.2,0.36 l 2.76,2.04 c 0.24,0.2 0.56,0.16 0.76,-0.08 0.92,-1.24 2.16,-1.8 3,-1.8 2.92,0 3.56,3.32 3.56,6.12 l 0,16.68 c 0,0.32 0.24,0.56 0.56,0.56 l 3.4,0 c 0.32,0 0.56,-0.24 0.56,-0.56 l 0,-16.68 z" />
        <path
           id="path4480"
           d="m 347.45286,469.84714 c 0,0 0,0 -0.04,0 -0.28,-4.08 -4.4,-7.4 -9.12,-7.4 l -3.44,0 c -5.28,0 -9.96,3.6 -10.88,8.36 -0.68,3.56 -2.72,18.32 -2.72,18.44 -0.04,0.16 0.04,0.32 0.12,0.44 0.12,0.12 0.28,0.2 0.44,0.2 l 3.48,0 c 0.28,0 0.52,-0.2 0.52,-0.48 0.04,-0.16 1.96,-14.4 2.6,-17.72 0.28,-1.36 1,-2.56 2.08,-3.48 1.36,-1.12 2.52,-1.56 4.36,-1.56 l 3.44,0 c 2.68,0 4.48,1.84 4.64,3.56 0,0 0.36,6.96 0.4,7.96 0,0 -1.08,0 -13.8,0 -0.32,0 -0.56,0.24 -0.56,0.56 l 0,3.08 c 0,0.32 0.24,0.56 0.56,0.56 13.04,0 14.04,0 14.04,0 0,0 0.04,0.92 0.36,6.96 0,0.32 0.24,0.52 0.56,0.52 l 3.4,0.04 c 0.16,0 0.32,-0.08 0.4,-0.16 0.12,-0.12 0.16,-0.28 0.16,-0.44 l -1,-19.44 z" />
        <path
           id="path4482"
           d="m 376.18224,471.36714 c 0,-5.16 -3.84,-8.92 -9.08,-8.92 l -7.32,0 c -5.16,0.04 -8.92,3.52 -8.92,8.32 l 0,18.52 c 0,0.32 0.24,0.56 0.56,0.56 l 3.4,0 c 0.32,0 0.56,-0.24 0.56,-0.56 l 0,-18.52 c 0,-1.24 0.48,-2.24 1.36,-2.96 0.8,-0.68 1.88,-1.04 3.04,-1.04 l 7.32,0 c 2.2,0 4.52,1.44 4.52,4.6 0,2.72 -1.88,4.72 -4.52,4.72 l -8.88,0 c -0.32,0 -0.56,0.24 -0.56,0.52 l 0,3.08 c 0,0.28 0.24,0.56 0.56,0.56 l 8.88,0 c 5.24,0 9.08,-3.76 9.08,-8.88 z" />
      </g>
    </g>
  </g>
</svg>
